<?xml version="1.0" encoding="UTF-8"?>
<svg width="20px" height="20px" viewBox="0 0 20 20" version="1.1" xmlns="http://www.w3.org/2000/svg" xmlns:xlink="http://www.w3.org/1999/xlink">
    <title>Group</title>
    <g id="home" stroke="none" stroke-width="1" fill="none" fill-rule="evenodd">
        <g id="Extra-Small" transform="translate(-779, -24)" fill="#FFFFFF" fill-rule="nonzero">
            <g id="Group" transform="translate(779, 24)">
                <path d="M12.9365561,7.34521489 C13.07423,6.92666639 13.1431249,6.71740661 13.257014,6.6791542 C13.3065415,6.66251626 13.3601489,6.66251626 13.4096764,6.6791542 C13.5235656,6.71740661 13.5924605,6.92666639 13.7301055,7.34521489 C14.3065537,9.09817064 14.5948935,9.97467745 15.1387895,10.6690079 C15.3893702,10.9889273 15.6777638,11.2773306 15.9976748,11.5279221 C16.6920052,12.0717892 17.5685699,12.360129 19.3214678,12.9365772 C19.7400163,13.0742511 19.9493629,13.143146 19.9875863,13.2570352 C20.0041379,13.3065768 20.0041379,13.360156 19.9875863,13.4096976 C19.9493629,13.5235868 19.7400163,13.5924816 19.3214678,13.7301266 C17.5685699,14.3065748 16.6920052,14.5949147 15.9976748,15.1388107 C15.6777646,15.3893921 15.3893709,15.6777857 15.1387895,15.9976959 C14.5948935,16.6920264 14.3065537,17.568591 13.7301055,19.3214889 C13.5924605,19.7400374 13.5235656,19.949384 13.4096764,19.9876075 C13.3601349,20.004159 13.3065556,20.004159 13.257014,19.9876075 C13.1431249,19.949384 13.07423,19.7400374 12.9365561,19.3214889 C12.3601079,17.568591 12.071768,16.6920264 11.5279009,15.9976959 C11.2773095,15.677785 10.9889062,15.3893914 10.6689868,15.1388107 C9.97465632,14.5949147 9.09814951,14.3065748 7.34519375,13.7301266 C6.92664526,13.5924816 6.71738548,13.5235868 6.67913307,13.4096976 C6.66249512,13.3601701 6.66249512,13.3065627 6.67913307,13.2570352 C6.71738548,13.143146 6.92664526,13.0742511 7.34519375,12.9365772 C9.09814951,12.360129 9.97465632,12.0717892 10.6689868,11.5279221 C10.9889068,11.2773311 11.27731,10.9889279 11.5279009,10.6690079 C12.071768,9.97467745 12.3601079,9.09817064 12.9365561,7.34521489 Z M4.17996597,3.78571528 C4.27171967,3.5066926 4.31761098,3.36716679 4.39356604,3.34167483 C4.42658258,3.33059208 4.46231479,3.33059208 4.49533133,3.34167483 C4.57128639,3.36716679 4.6171777,3.5066926 4.7089314,3.78571528 C5.09327843,4.95435245 5.2854664,5.53867104 5.64808305,6.00160622 C5.81515123,6.21485518 6.00740496,6.40710891 6.22065392,6.57417709 C6.68356016,6.93679373 7.26790768,7.12898171 8.43654485,7.51332873 C8.71556754,7.60508243 8.85509335,7.65097375 8.88058531,7.7269288 C8.89166806,7.75994534 8.89166806,7.79567756 8.88058531,7.8286941 C8.85509335,7.90464915 8.71556754,7.95054047 8.43654485,8.04229417 C7.26790768,8.42664119 6.68356016,8.61882917 6.22065392,8.98144581 C6.00740496,9.148514 5.81515123,9.34076772 5.64808305,9.55401668 C5.2854664,10.0169229 5.09327843,10.6012704 4.7089314,11.7699366 C4.6171777,12.0489303 4.57128639,12.188485 4.49533133,12.2139191 C4.4623193,12.2250295 4.42657807,12.2250295 4.39356604,12.2139191 C4.31761098,12.188485 4.27171967,12.0489303 4.17996597,11.7699366 C3.79561894,10.6012704 3.60343097,10.0169229 3.24078539,9.55401668 C3.07373512,9.34076153 2.88149016,9.14850686 2.66824345,8.98144581 C2.20530827,8.61882917 1.62098969,8.42664119 0.452352518,8.04229417 C0.173300898,7.95054047 0.0338040225,7.90464915 0.00831206085,7.8286941 C-0.00277068695,7.79567756 -0.00277068695,7.75994534 0.00831206085,7.7269288 C0.0338040225,7.65097375 0.173300898,7.60508243 0.452352518,7.51332873 C1.62098969,7.12898171 2.20530827,6.93679373 2.66824345,6.57417709 C2.88149016,6.40711604 3.07373512,6.21486137 3.24078539,6.00160622 C3.60343097,5.53867104 3.79561894,4.95435245 4.17996597,3.78571528 L4.17996597,3.78571528 Z M10.3902245,0.282726239 C10.4475742,0.108333443 10.4763358,0.0211515132 10.5237896,0.00520818649 C10.5444011,-0.00173606216 10.56672,-0.00173606216 10.5873315,0.00520818649 C10.6347853,0.0211515132 10.6635759,0.108333443 10.7208966,0.282726239 C10.9611171,1.01313894 11.0812274,1.37833082 11.3077904,1.66765446 C11.4122385,1.80092687 11.5324098,1.92108841 11.6656906,2.02552572 C11.9550143,2.25214665 12.3202351,2.37228584 13.0506767,2.61247741 C13.2250116,2.66982709 13.3122514,2.69853086 13.3281369,2.74598469 C13.3351393,2.76660636 13.3351393,2.78896271 13.3281369,2.80958438 C13.3122514,2.85706714 13.2250116,2.88574198 13.0506767,2.94312059 C12.3202351,3.18331216 11.9550143,3.30342242 11.6656906,3.53007229 C11.5324098,3.63450959 11.4122385,3.75467113 11.3077904,3.88794355 C11.0812274,4.17726719 10.9611171,4.54245907 10.7208966,5.27284283 C10.6635759,5.44723563 10.6347853,5.53444649 10.5873315,5.55038982 C10.5667152,5.55730437 10.5444059,5.55730437 10.5237896,5.55038982 C10.4763358,5.53444649 10.4475742,5.44723563 10.3902245,5.27284283 C10.150004,4.54245907 10.0298937,4.17726719 9.80330173,3.88794355 C9.69887919,3.75465818 9.57871583,3.63449483 9.44543047,3.53007229 C9.15610683,3.30342242 8.79091495,3.18331216 8.06050225,2.94312059 C7.88610945,2.88574198 7.79892752,2.85706714 7.7829842,2.80958438 C7.77603973,2.78895318 7.77603973,2.76661588 7.7829842,2.74598469 C7.79892752,2.69853086 7.88610945,2.66982709 8.06050225,2.61247741 C8.79091495,2.37228584 9.15610683,2.25214665 9.44543047,2.02552572 C9.57871583,1.92110318 9.69887919,1.80093982 9.80330173,1.66765446 C10.0298937,1.37833082 10.150004,1.01313894 10.3902245,0.282726239 L10.3902245,0.282726239 Z" id="Shape"></path>
            </g>
        </g>
    </g>
</svg>